<svg width="253" height="56" viewBox="0 0 253 56" fill="none" xmlns="http://www.w3.org/2000/svg">
<rect x="0.5" y="0.5" width="119" height="55" rx="27.5" stroke="black"/>
<path d="M45.3333 40C45.3333 38.728 44.1117 36.8286 42.875 35.2343C41.285 33.1771 39.385 31.3823 37.2067 30.0126C35.5733 28.9857 33.5933 28 32 28M32 28C33.5933 28 35.575 27.0143 37.2067 25.9874C39.385 24.616 41.285 22.8211 42.875 20.7674C44.1117 19.1714 45.3333 17.2686 45.3333 16M32 28L88 28" stroke="black"/>
<rect x="133.5" y="0.5" width="119" height="55" rx="27.5" stroke="black"/>
<path d="M207.667 16C207.667 17.272 208.888 19.1714 210.125 20.7657C211.715 22.8229 213.615 24.6177 215.793 25.9874C217.427 27.0143 219.407 28 221 28M221 28C219.407 28 217.425 28.9857 215.793 30.0126C213.615 31.384 211.715 33.1789 210.125 35.2326C208.888 36.8286 207.667 38.7314 207.667 40M221 28L165 28" stroke="black"/>
</svg>
