<svg width="109" height="29" viewBox="0 0 109 29" fill="none" xmlns="http://www.w3.org/2000/svg">
<g clip-path="url(#clip0_4_395)">
<path d="M0 5.42942C0 4.59861 0.690375 3.92529 1.54219 3.92529H19.4578C20.3096 3.92529 21 4.59861 21 5.42942V23.4212C21 24.252 20.3096 24.9253 19.4578 24.9253H1.54219C0.690375 24.9253 0 24.252 0 23.4212V5.42942ZM6.48769 21.5049V12.0221H3.33637V21.5049H6.48769ZM4.91269 10.7267C6.01125 10.7267 6.69506 9.99954 6.69506 9.08867C6.67537 8.15811 6.01256 7.45067 4.93369 7.45067C3.85481 7.45067 3.15 8.15942 3.15 9.08867C3.15 9.99954 3.83381 10.7267 4.89169 10.7267H4.91269ZM11.3544 21.5049V16.209C11.3544 15.9255 11.3754 15.642 11.4594 15.4399C11.6865 14.8742 12.2049 14.2875 13.0764 14.2875C14.217 14.2875 14.6724 15.1564 14.6724 16.4321V21.5049H17.8237V16.0659C17.8237 13.1522 16.2698 11.7977 14.196 11.7977C12.5239 11.7977 11.7744 12.7164 11.3544 13.3635V13.3963H11.3334C11.3404 13.3853 11.3474 13.3744 11.3544 13.3635V12.0221H8.20444C8.24381 12.912 8.20444 21.5049 8.20444 21.5049H11.3544Z" fill="#6979A7"/>
</g>
<path d="M46.1 2.75879H55.9C59.6333 2.75879 62.6667 5.79212 62.6667 9.52546V19.3255C62.6667 21.1201 61.9538 22.8412 60.6848 24.1102C59.4158 25.3792 57.6946 26.0921 55.9 26.0921H46.1C42.3667 26.0921 39.3333 23.0588 39.3333 19.3255V9.52546C39.3333 7.73082 40.0462 6.0097 41.3152 4.7407C42.5842 3.4717 44.3054 2.75879 46.1 2.75879ZM45.8667 5.09212C44.7528 5.09212 43.6845 5.53462 42.8968 6.32227C42.1092 7.10993 41.6667 8.17821 41.6667 9.29212V19.5588C41.6667 21.8805 43.545 23.7588 45.8667 23.7588H56.1333C57.2472 23.7588 58.3155 23.3163 59.1032 22.5286C59.8908 21.741 60.3333 20.6727 60.3333 19.5588V9.29212C60.3333 6.97046 58.455 5.09212 56.1333 5.09212H45.8667ZM57.125 6.84212C57.5118 6.84212 57.8827 6.99577 58.1562 7.26926C58.4297 7.54275 58.5833 7.91368 58.5833 8.30046C58.5833 8.68723 58.4297 9.05816 58.1562 9.33165C57.8827 9.60514 57.5118 9.75879 57.125 9.75879C56.7382 9.75879 56.3673 9.60514 56.0938 9.33165C55.8203 9.05816 55.6667 8.68723 55.6667 8.30046C55.6667 7.91368 55.8203 7.54275 56.0938 7.26926C56.3673 6.99577 56.7382 6.84212 57.125 6.84212ZM51 8.59212C52.5471 8.59212 54.0308 9.2067 55.1248 10.3007C56.2188 11.3946 56.8333 12.8784 56.8333 14.4255C56.8333 15.9726 56.2188 17.4563 55.1248 18.5502C54.0308 19.6442 52.5471 20.2588 51 20.2588C49.4529 20.2588 47.9692 19.6442 46.8752 18.5502C45.7812 17.4563 45.1667 15.9726 45.1667 14.4255C45.1667 12.8784 45.7812 11.3946 46.8752 10.3007C47.9692 9.2067 49.4529 8.59212 51 8.59212ZM51 10.9255C50.0717 10.9255 49.1815 11.2942 48.5251 11.9506C47.8687 12.607 47.5 13.4972 47.5 14.4255C47.5 15.3537 47.8687 16.244 48.5251 16.9003C49.1815 17.5567 50.0717 17.9255 51 17.9255C51.9283 17.9255 52.8185 17.5567 53.4749 16.9003C54.1313 16.244 54.5 15.3537 54.5 14.4255C54.5 13.4972 54.1313 12.607 53.4749 11.9506C52.8185 11.2942 51.9283 10.9255 51 10.9255Z" fill="#6979A7"/>
<path d="M107.203 7.42513C106.305 7.83346 105.337 8.1018 104.333 8.23013C105.36 7.6118 106.153 6.6318 106.527 5.45346C105.558 6.0368 104.485 6.44513 103.353 6.67846C102.432 5.67513 101.137 5.0918 99.6667 5.0918C96.925 5.0918 94.685 7.3318 94.685 10.0968C94.685 10.4935 94.7317 10.8785 94.8133 11.2401C90.66 11.0301 86.9617 9.03513 84.5 6.01346C84.0683 6.74846 83.8233 7.6118 83.8233 8.5218C83.8233 10.2601 84.6983 11.8001 86.0517 12.6751C85.2233 12.6751 84.4533 12.4418 83.7767 12.0918V12.1268C83.7767 14.5535 85.5033 16.5835 87.79 17.0385C87.0558 17.2394 86.2851 17.2673 85.5383 17.1201C85.8552 18.1147 86.4758 18.9849 87.3129 19.6086C88.1499 20.2322 89.1614 20.5778 90.205 20.5968C88.4359 21.9973 86.243 22.7543 83.9867 22.7435C83.59 22.7435 83.1933 22.7201 82.7967 22.6735C85.0133 24.0968 87.65 24.9251 90.4733 24.9251C99.6667 24.9251 104.718 17.2951 104.718 10.6801C104.718 10.4585 104.718 10.2485 104.707 10.0268C105.687 9.3268 106.527 8.44013 107.203 7.42513Z" fill="#6979A7"/>
<defs>
<clipPath id="clip0_4_395">
<rect width="21" height="21" fill="white" transform="translate(0 3.92529)"/>
</clipPath>
</defs>
</svg>
